HIERARCHY
ROOT newVegas:Hips
{
	OFFSET 0.000000 96.479958 0.000000
	CHANNELS 6 Xposition Yposition Zposition Xrotation Yrotation Zrotation
	JOINT newVegas:Pelvis
	{
		OFFSET 0.000000 0.000000 0.000000
		CHANNELS 3 Xrotation Yrotation Zrotation
		JOINT newVegas:LeftUpLeg
		{
			OFFSET 18.735201 -5.666702 -4.541200
			CHANNELS 3 Xrotation Yrotation Zrotation
			JOINT newVegas:LeftLeg
			{
				OFFSET -0.021200 -31.938179 0.493100
				CHANNELS 3 Xrotation Yrotation Zrotation
				JOINT newVegas:LeftFoot
				{
					OFFSET 0.021200 -31.938179 -4.336299
					CHANNELS 3 Xrotation Yrotation Zrotation
					JOINT newVegas:LeftToeBase
					{
						OFFSET 0.943001 -26.722000 15.023500
						CHANNELS 3 Xrotation Yrotation Zrotation
						End Site
						{
							OFFSET 0.000000 30.670183 0.000000
						}
					}
				}
				JOINT newVegas:Left_PantLeg
				{
					OFFSET 0.663870 -9.044666 -1.108900
					CHANNELS 3 Xrotation Yrotation Zrotation
					End Site
					{
						OFFSET 1.415995 20.635357 0.000000
					}
				}
			}
		}
		JOINT newVegas:RightUpLeg
		{
			OFFSET -18.735201 -5.666702 -4.541200
			CHANNELS 3 Xrotation Yrotation Zrotation
			JOINT newVegas:RightLeg
			{
				OFFSET 0.018946 -31.938133 0.493100
				CHANNELS 3 Xrotation Yrotation Zrotation
				JOINT newVegas:RightFoot
				{
					OFFSET -0.018946 -31.938126 -4.336299
					CHANNELS 3 Xrotation Yrotation Zrotation
					JOINT newVegas:RightToeBase
					{
						OFFSET -0.943001 -26.722004 15.023500
						CHANNELS 3 Xrotation Yrotation Zrotation
						End Site
						{
							OFFSET 0.000000 30.670187 0.000000
						}
					}
				}
				JOINT newVegas:Right_PantLeg
				{
					OFFSET -0.661674 -9.044716 -1.108900
					CHANNELS 3 Xrotation Yrotation Zrotation
					End Site
					{
						OFFSET -1.415958 20.635269 0.000000
					}
				}
			}
		}
	}
	JOINT newVegas:Spine
	{
		OFFSET 0.000000 10.199997 -0.299500
		CHANNELS 3 Xrotation Yrotation Zrotation
		JOINT newVegas:Spine1
		{
			OFFSET 0.000000 11.900002 -1.516600
			CHANNELS 3 Xrotation Yrotation Zrotation
			JOINT newVegas:Spine2
			{
				OFFSET 0.000000 13.600006 -2.842500
				CHANNELS 3 Xrotation Yrotation Zrotation
				JOINT newVegas:Neck
				{
					OFFSET 0.000000 9.624100 -2.890100
					CHANNELS 3 Xrotation Yrotation Zrotation
					JOINT newVegas:Head
					{
						OFFSET 0.000000 14.068802 -1.351900
						CHANNELS 3 Xrotation Yrotation Zrotation
						JOINT newVegas:Hair_Back
						{
							OFFSET 0.000000 3.231903 -17.524799
							CHANNELS 3 Xrotation Yrotation Zrotation
							End Site
							{
								OFFSET 0.000000 19.849884 0.000000
							}
						}
						JOINT newVegas:Hair_Front
						{
							OFFSET 0.000000 31.260406 4.573800
							CHANNELS 3 Xrotation Yrotation Zrotation
							JOINT newVegas:Hair_Front1
							{
								OFFSET 0.000000 2.284103 11.993300
								CHANNELS 3 Xrotation Yrotation Zrotation
								JOINT newVegas:Hair_Front2
								{
									OFFSET 0.000000 2.284103 11.993300
									CHANNELS 3 Xrotation Yrotation Zrotation
									End Site
									{
										OFFSET 0.000000 12.208862 0.000000
									}
								}
							}
						}
						JOINT newVegas:Jowel
						{
							OFFSET 0.000000 -7.458206 6.864100
							CHANNELS 3 Xrotation Yrotation Zrotation
							End Site
							{
								OFFSET 0.000000 19.849884 0.000000
							}
						}
					}
				}
				JOINT newVegas:LeftShoulder
				{
					OFFSET 15.263000 10.923401 -0.547700
					CHANNELS 3 Xrotation Yrotation Zrotation
					JOINT newVegas:LeftArm
					{
						OFFSET 25.438599 -2.830597 -13.032500
						CHANNELS 3 Xrotation Yrotation Zrotation
						JOINT newVegas:LeftForeArm
						{
							OFFSET 29.960503 0.000000 0.000000
							CHANNELS 3 Xrotation Yrotation Zrotation
							JOINT newVegas:LeftHand
							{
								OFFSET 27.849251 0.000000 0.000000
								CHANNELS 3 Xrotation Yrotation Zrotation
								JOINT newVegas:LeftHandThumb1
								{
									OFFSET 4.487587 -3.305161 6.305391
									CHANNELS 3 Xrotation Yrotation Zrotation
									JOINT newVegas:LeftHandThumb2
									{
										OFFSET 5.480453 -3.164139 3.164143
										CHANNELS 3 Xrotation Yrotation Zrotation
										JOINT newVegas:LeftHandThumb3
										{
											OFFSET 5.159721 -2.978973 2.978967
											CHANNELS 3 Xrotation Yrotation Zrotation
											End Site
											{
												OFFSET 2.494507 5.926697 1.738678
											}
										}
									}
								}
								JOINT newVegas:LeftHandIndex1
								{
									OFFSET 18.578728 -0.527832 5.208049
									CHANNELS 3 Xrotation Yrotation Zrotation
									JOINT newVegas:LeftHandIndex2
									{
										OFFSET 3.192009 0.000000 0.000000
										CHANNELS 3 Xrotation Yrotation Zrotation
										JOINT newVegas:LeftHandIndex3
										{
											OFFSET 3.835129 0.000000 0.000000
											CHANNELS 3 Xrotation Yrotation Zrotation
											End Site
											{
												OFFSET -0.034599 3.816971 0.371180
											}
										}
									}
								}
								JOINT newVegas:LeftHandMiddle1
								{
									OFFSET 18.476105 0.000000 0.000000
									CHANNELS 3 Xrotation Yrotation Zrotation
									JOINT newVegas:LeftHandMiddle2
									{
										OFFSET 3.324875 0.000000 0.000000
										CHANNELS 3 Xrotation Yrotation Zrotation
										JOINT newVegas:LeftHandMiddle3
										{
											OFFSET 4.596550 0.000000 0.000000
											CHANNELS 3 Xrotation Yrotation Zrotation
											End Site
											{
												OFFSET 0.057701 4.578827 0.399218
											}
										}
									}
								}
								JOINT newVegas:LeftHandRing1
								{
									OFFSET 17.732719 0.121887 -4.201567
									CHANNELS 3 Xrotation Yrotation Zrotation
									JOINT newVegas:LeftHandRing2
									{
										OFFSET 2.733170 0.000000 0.000000
										CHANNELS 3 Xrotation Yrotation Zrotation
										JOINT newVegas:LeftHandRing3
										{
											OFFSET 3.178268 0.000000 0.000000
											CHANNELS 3 Xrotation Yrotation Zrotation
											End Site
											{
												OFFSET 0.119102 3.170624 0.185394
											}
										}
									}
								}
								JOINT newVegas:LeftHandPinky1
								{
									OFFSET 15.989624 -0.606689 -7.535461
									CHANNELS 3 Xrotation Yrotation Zrotation
									JOINT newVegas:LeftHandPinky2
									{
										OFFSET 2.538986 0.000000 0.000000
										CHANNELS 3 Xrotation Yrotation Zrotation
										JOINT newVegas:LeftHandPinky3
										{
											OFFSET 2.593102 0.000000 0.000000
											CHANNELS 3 Xrotation Yrotation Zrotation
											End Site
											{
												OFFSET -0.150902 2.584198 0.152708
											}
										}
									}
								}
							}
							JOINT newVegas:Left_Sleeve
							{
								OFFSET 0.267448 -0.649796 0.577675
								CHANNELS 3 Xrotation Yrotation Zrotation
								End Site
								{
									OFFSET 0.000000 15.991241 0.000000
								}
							}
							JOINT newVegas:Left_CapeC
							{
								OFFSET 15.715958 -8.608795 -6.935905
								CHANNELS 3 Xrotation Yrotation Zrotation
								JOINT newVegas:Left_CapeC1
								{
									OFFSET 0.000000 -8.688499 0.000000
									CHANNELS 3 Xrotation Yrotation Zrotation
									End Site
									{
										OFFSET 0.000000 8.688499 0.000000
									}
								}
							}
						}
						JOINT newVegas:Left_CapeB
						{
							OFFSET 26.118385 -8.608795 -7.079235
							CHANNELS 3 Xrotation Yrotation Zrotation
							JOINT newVegas:Left_CapeB1
							{
								OFFSET 0.000000 -8.688499 0.000000
								CHANNELS 3 Xrotation Yrotation Zrotation
								End Site
								{
									OFFSET 0.000000 8.688499 0.000000
								}
							}
						}
						JOINT newVegas:Left_CapeA
						{
							OFFSET 5.115639 -8.608795 -10.395809
							CHANNELS 3 Xrotation Yrotation Zrotation
							JOINT newVegas:Left_CapeA1
							{
								OFFSET 0.000000 -8.688499 0.000000
								CHANNELS 3 Xrotation Yrotation Zrotation
								End Site
								{
									OFFSET 0.000000 8.688499 0.000000
								}
							}
						}
					}
				}
				JOINT newVegas:RightShoulder
				{
					OFFSET -15.263000 10.923401 -0.547700
					CHANNELS 3 Xrotation Yrotation Zrotation
					JOINT newVegas:RightArm
					{
						OFFSET -25.438599 -2.830597 -13.032500
						CHANNELS 3 Xrotation Yrotation Zrotation
						JOINT newVegas:RightForeArm
						{
							OFFSET -29.960503 0.000000 0.000000
							CHANNELS 3 Xrotation Yrotation Zrotation
							JOINT newVegas:RightHand
							{
								OFFSET -27.849251 0.000000 0.000000
								CHANNELS 3 Xrotation Yrotation Zrotation
								JOINT newVegas:RightHandThumb1
								{
									OFFSET -4.487587 -3.305161 6.305391
									CHANNELS 3 Xrotation Yrotation Zrotation
									JOINT newVegas:RightHandThumb2
									{
										OFFSET -5.480453 -3.164139 3.164143
										CHANNELS 3 Xrotation Yrotation Zrotation
										JOINT newVegas:RightHandThumb3
										{
											OFFSET -5.159721 -2.978973 2.978967
											CHANNELS 3 Xrotation Yrotation Zrotation
											End Site
											{
												OFFSET -2.494507 5.926697 1.738678
											}
										}
									}
								}
								JOINT newVegas:RightHandIndex1
								{
									OFFSET -18.578728 -0.527832 5.208049
									CHANNELS 3 Xrotation Yrotation Zrotation
									JOINT newVegas:RightHandIndex2
									{
										OFFSET -3.192009 0.000000 0.000000
										CHANNELS 3 Xrotation Yrotation Zrotation
										JOINT newVegas:RightHandIndex3
										{
											OFFSET -3.835129 0.000000 0.000000
											CHANNELS 3 Xrotation Yrotation Zrotation
											End Site
											{
												OFFSET 0.034599 3.816971 0.371180
											}
										}
									}
								}
								JOINT newVegas:RightHandMiddle1
								{
									OFFSET -18.476105 0.000000 0.000000
									CHANNELS 3 Xrotation Yrotation Zrotation
									JOINT newVegas:RightHandMiddle2
									{
										OFFSET -3.324875 0.000000 0.000000
										CHANNELS 3 Xrotation Yrotation Zrotation
										JOINT newVegas:RightHandMiddle3
										{
											OFFSET -4.596550 0.000000 0.000000
											CHANNELS 3 Xrotation Yrotation Zrotation
											End Site
											{
												OFFSET -0.057701 4.578827 0.399218
											}
										}
									}
								}
								JOINT newVegas:RightHandRing1
								{
									OFFSET -17.732719 0.121887 -4.201567
									CHANNELS 3 Xrotation Yrotation Zrotation
									JOINT newVegas:RightHandRing2
									{
										OFFSET -2.733170 0.000000 0.000000
										CHANNELS 3 Xrotation Yrotation Zrotation
										JOINT newVegas:RightHandRing3
										{
											OFFSET -3.178268 0.000000 0.000000
											CHANNELS 3 Xrotation Yrotation Zrotation
											End Site
											{
												OFFSET -0.119102 3.170624 0.185394
											}
										}
									}
								}
								JOINT newVegas:RightHandPinky1
								{
									OFFSET -15.989624 -0.606689 -7.535461
									CHANNELS 3 Xrotation Yrotation Zrotation
									JOINT newVegas:RightHandPinky2
									{
										OFFSET -2.538986 0.000000 0.000000
										CHANNELS 3 Xrotation Yrotation Zrotation
										JOINT newVegas:RightHandPinky3
										{
											OFFSET -2.593102 0.000000 0.000000
											CHANNELS 3 Xrotation Yrotation Zrotation
											End Site
											{
												OFFSET 0.150902 2.584198 0.152708
											}
										}
									}
								}
							}
							JOINT newVegas:Right_CapeC
							{
								OFFSET -15.715958 -8.608795 -6.935905
								CHANNELS 3 Xrotation Yrotation Zrotation
								JOINT newVegas:Right_CapeC1
								{
									OFFSET 0.000000 -8.688499 0.000000
									CHANNELS 3 Xrotation Yrotation Zrotation
									End Site
									{
										OFFSET 0.000000 8.688499 0.000000
									}
								}
							}
							JOINT newVegas:Right_Sleeve
							{
								OFFSET -0.267448 -0.649994 0.577675
								CHANNELS 3 Xrotation Yrotation Zrotation
								End Site
								{
									OFFSET 0.000000 15.991302 0.000000
								}
							}
						}
						JOINT newVegas:Right_CapeA
						{
							OFFSET -5.115540 -8.608795 -10.395824
							CHANNELS 3 Xrotation Yrotation Zrotation
							JOINT newVegas:Right_CapeA1
							{
								OFFSET 0.000000 -8.688499 0.000000
								CHANNELS 3 Xrotation Yrotation Zrotation
								End Site
								{
									OFFSET 0.000000 8.688499 0.000000
								}
							}
						}
						JOINT newVegas:Right_CapeB
						{
							OFFSET -26.118187 -8.608795 -7.079266
							CHANNELS 3 Xrotation Yrotation Zrotation
							JOINT newVegas:Right_CapeB1
							{
								OFFSET 0.000000 -8.688499 0.000000
								CHANNELS 3 Xrotation Yrotation Zrotation
								End Site
								{
									OFFSET 0.000000 8.688499 0.000000
								}
							}
						}
					}
				}
				JOINT newVegas:Left_Collar
				{
					OFFSET 18.625099 8.655502 8.828100
					CHANNELS 3 Xrotation Yrotation Zrotation
					JOINT newVegas:Left_Collar1
					{
						OFFSET 14.783401 10.540405 -1.259500
						CHANNELS 3 Xrotation Yrotation Zrotation
						End Site
						{
							OFFSET 0.000000 18.199875 0.000000
						}
					}
				}
				JOINT newVegas:Collar_Back
				{
					OFFSET 0.000000 15.630707 -20.132601
					CHANNELS 3 Xrotation Yrotation Zrotation
					End Site
					{
						OFFSET 0.000000 22.523010 0.000000
					}
				}
				JOINT newVegas:Left_Peck
				{
					OFFSET 17.239599 -5.132599 25.482599
					CHANNELS 3 Xrotation Yrotation Zrotation
					End Site
					{
						OFFSET 0.000000 22.523010 0.000000
					}
				}
				JOINT newVegas:Right_Peck
				{
					OFFSET -17.239599 -5.132202 25.482599
					CHANNELS 3 Xrotation Yrotation Zrotation
					End Site
					{
						OFFSET 0.000000 22.523010 0.000000
					}
				}
				JOINT newVegas:Right_Collar
				{
					OFFSET -18.625099 8.655792 8.828100
					CHANNELS 3 Xrotation Yrotation Zrotation
					JOINT newVegas:Right_Collar1
					{
						OFFSET -14.783401 10.539993 -1.259500
						CHANNELS 3 Xrotation Yrotation Zrotation
						End Site
						{
							OFFSET 0.000000 18.199631 0.000000
						}
					}
				}
			}
		}
		JOINT newVegas:Belly
		{
			OFFSET 0.000000 -6.540398 9.014299
			CHANNELS 3 Xrotation Yrotation Zrotation
			End Site
			{
				OFFSET 0.000000 11.566666 0.000000
			}
		}
	}
	JOINT newVegas:ElvisFacialAnim_Joint
	{
		OFFSET 1.000000 -95.330101 -8.825800
		CHANNELS 3 Xrotation Yrotation Zrotation
		End Site
		{
			OFFSET 0.000000 35.315800 0.000000
		}
	}
}
MOTION
Frames: 4
Frame Time: 0.016667
-3.903346 87.879501 2.981558 -5.655563 -42.315856 -2.610308 0.000000 0.000002 0.000000 -32.882867 2.191886 14.377707 37.911774 -13.085161 2.273987 -3.095209 0.955351 -13.278547 -0.000000 -0.000002 0.000000 0.000000 -0.000003 0.000001 -1.449735 -13.845954 -19.018884 35.889683 19.295653 -4.971371 -33.253227 -2.671249 6.896956 0.000000 -0.000001 0.000001 0.000001 0.000000 -0.000000 5.901348 0.404862 -0.116870 11.805247 0.991256 -0.356034 11.805244 0.991262 -0.356034 1.121411 -5.594722 -0.520288 1.121410 -5.594731 -0.520289 0.000002 0.000000 -0.000001 1.121405 -5.594715 -0.520292 1.121472 -5.594684 -0.520285 0.000003 -0.000003 0.000002 0.000002 0.000000 -0.000000 0.953416 -3.294059 -6.337557 -7.803590 10.695485 -60.595697 -1.858059 -56.426348 -5.060462 4.516195 -4.170937 22.267585 11.334911 9.730348 -4.479189 3.334375 8.219270 1.772107 0.000001 0.000001 -0.000003 2.657365 -3.651128 -37.231464 -2.225266 -2.598635 -50.721975 -0.000000 -0.000001 0.000000 0.107963 6.609287 -47.483878 -2.786373 -4.412159 -56.251246 0.000003 -0.000002 -0.000002 -2.805066 11.224149 -62.315374 -2.190470 -4.064440 -66.809297 -0.000000 0.000005 -0.000000 -6.755469 4.974073 -66.027965 -1.326972 -6.177003 -73.865614 -0.000003 -0.000002 0.000002 -0.000002 -0.000000 0.000001 -0.000002 -0.000000 0.000001 -0.000003 -0.000000 0.000001 -0.000001 0.000001 0.000001 -0.000001 0.000001 0.000001 -0.000001 0.000001 0.000001 -0.000002 0.000002 0.000001 1.781017 9.143871 7.041881 5.733445 -24.152577 68.587626 -7.143953 60.700253 7.121734 7.495354 6.265622 -16.551755 2.659605 -9.639241 12.705351 9.977278 -18.153786 0.046817 0.000001 -0.000003 -0.000001 3.448072 -2.832152 46.578134 -2.544538 2.250446 60.768897 0.000002 0.000000 0.000000 -1.797317 -0.803619 42.426898 -4.426286 4.278510 82.714574 -0.000001 0.000001 0.000000 -4.363435 -0.803120 50.285369 -4.892187 5.732357 89.685991 -0.000003 -0.000001 -0.000001 -8.591762 0.616668 50.078831 -5.070536 9.380905 93.712217 -0.000003 0.000003 0.000001 0.000001 -0.000000 0.000002 0.000001 0.000001 0.000001 0.000001 -0.000001 0.000003 -0.000003 -0.000001 -0.000003 -0.000003 0.000000 -0.000003 -0.000003 -0.000001 -0.000003 -0.000003 -0.000000 -0.000003 0.000001 0.000001 -0.000001 0.000001 0.000001 -0.000001 0.000001 0.000001 -0.000001 0.000001 0.000001 -0.000001 0.000001 0.000001 -0.000001 0.000001 0.000001 -0.000001 0.000001 0.000001 -0.000001 0.000000 0.000001 -0.000000 0.000000 0.000002 0.000000 
-4.019488 87.989708 2.887319 -5.742396 -44.229457 -2.751130 -0.000000 -0.000001 -0.000000 -31.970599 2.539618 15.125114 37.787195 -11.867239 2.103141 -3.660641 1.056525 -13.611875 -0.000000 0.000000 0.000000 -0.000000 -0.000003 0.000001 -2.780128 -13.546460 -19.327152 36.484699 19.863008 -5.361155 -32.758605 -2.644963 7.133911 0.000000 0.000003 0.000000 0.000001 -0.000004 0.000000 5.947342 0.140203 -0.070398 11.895481 0.464789 -0.236212 11.895483 0.464798 -0.236211 1.078553 -5.582136 -0.546922 1.078565 -5.582161 -0.546917 0.000001 -0.000001 0.000001 1.078576 -5.582198 -0.546905 1.078575 -5.582168 -0.546913 -0.000001 0.000000 -0.000000 0.000001 -0.000001 0.000002 0.886141 -3.734530 -6.257962 -7.277726 11.319154 -60.862340 -1.912542 -56.844055 -5.070191 4.598238 -4.482962 22.325433 11.166518 9.800951 -4.305340 3.299759 8.317262 1.736555 0.000000 -0.000001 -0.000003 2.430036 -3.828144 -36.215548 -2.114147 -2.506276 -49.528424 0.000000 -0.000001 -0.000001 0.215179 6.756660 -46.504501 -2.677672 -4.338606 -55.049986 -0.000002 0.000001 0.000001 -2.571695 11.355756 -61.525811 -2.125250 -4.036833 -65.648384 0.000000 0.000001 0.000001 -6.144472 5.321290 -65.117261 -1.302571 -6.170264 -72.693690 -0.000003 -0.000005 -0.000001 0.000002 -0.000002 0.000003 0.000002 -0.000002 0.000003 0.000001 -0.000002 0.000003 -0.000002 -0.000002 -0.000001 -0.000001 0.000000 -0.000001 -0.000002 -0.000002 -0.000001 -0.000003 -0.000001 -0.000001 1.849867 8.523536 7.171789 5.962376 -24.111213 68.526974 -7.077258 61.206336 7.218171 7.457477 6.199110 -16.983250 2.643643 -9.750536 12.704199 10.045714 -18.113347 0.095433 0.000001 -0.000000 -0.000000 3.693277 -2.557015 47.479910 -2.589261 2.274963 61.275410 0.000001 -0.000004 -0.000000 -1.828345 -0.767069 43.027774 -4.489871 4.286470 83.433616 -0.000004 0.000001 -0.000000 -4.453581 -0.817804 50.903214 -4.955596 5.732772 90.417006 0.000002 0.000003 -0.000003 -8.704299 0.527744 50.621633 -5.118183 9.370106 94.249507 -0.000001 0.000002 -0.000002 0.000002 0.000002 0.000001 -0.000001 0.000000 0.000001 0.000002 0.000002 0.000001 0.000001 -0.000002 -0.000003 0.000001 -0.000001 -0.000003 0.000001 -0.000002 -0.000003 0.000001 -0.000001 -0.000003 0.000001 0.000001 0.000000 0.000001 0.000001 0.000000 0.000001 0.000001 0.000000 0.000001 0.000001 0.000000 0.000001 0.000001 0.000000 0.000001 0.000001 0.000000 0.000001 0.000001 0.000000 -0.000000 -0.000001 0.000000 -0.000000 -0.000001 -0.000000 
-4.138443 88.098518 2.786323 -5.866480 -46.151264 -2.903948 -0.000000 -0.000000 -0.000000 -30.992212 2.929451 15.837295 37.613138 -10.642038 1.924042 -4.204696 1.161411 -13.964247 -0.000000 -0.000000 -0.000000 0.000000 -0.000001 -0.000000 -4.080370 -13.207600 -19.575309 37.093617 20.312045 -5.775346 -32.258031 -2.624533 7.390815 0.000000 0.000001 0.000000 -0.000001 -0.000001 0.000001 5.994709 -0.127521 -0.025589 11.989265 -0.070019 -0.121171 11.989278 -0.070046 -0.121160 1.023158 -5.555988 -0.582568 1.023132 -5.555968 -0.582577 -0.000001 -0.000000 0.000001 1.023084 -5.556019 -0.582567 1.023167 -5.555972 -0.582565 -0.000000 0.000001 -0.000001 -0.000001 -0.000000 0.000000 0.810233 -4.308825 -6.381135 -6.676087 12.150731 -60.876704 -2.277403 -57.498657 -5.268929 4.466195 -4.693814 22.282235 10.967480 9.825538 -4.124768 3.258296 8.415878 1.703279 0.000003 -0.000002 -0.000003 2.194175 -4.002786 -35.091125 -1.993682 -2.401479 -48.208940 -0.000001 0.000003 -0.000000 0.327766 6.910712 -45.419757 -2.561325 -4.256006 -53.740765 -0.000001 0.000001 -0.000004 -2.325153 11.481154 -60.605491 -2.055398 -4.005526 -64.391274 -0.000001 0.000003 -0.000000 -5.502785 5.688534 -64.103108 -1.276573 -6.162501 -71.433848 0.000002 -0.000003 0.000002 -0.000003 0.000001 -0.000000 -0.000003 0.000001 -0.000000 -0.000003 0.000001 0.000000 -0.000001 0.000000 0.000000 -0.000001 0.000000 0.000002 -0.000001 0.000000 0.000000 -0.000002 -0.000000 0.000000 1.951321 7.799975 7.121223 6.182276 -23.943565 68.623839 -6.650516 61.549218 7.002546 7.654135 6.217744 -17.779949 2.794237 -9.711134 12.808124 10.023106 -18.127604 0.049082 0.000002 -0.000003 0.000001 3.955479 -2.272771 48.348023 -2.630130 2.296962 61.736905 0.000000 0.000002 0.000003 -1.858062 -0.736054 43.602907 -4.552206 4.293553 84.138764 -0.000002 -0.000002 0.000002 -4.541479 -0.832910 51.507484 -5.016390 5.732363 91.119744 -0.000001 -0.000001 0.000000 -8.806163 0.435159 51.132053 -5.163183 9.357153 94.720783 0.000001 0.000005 0.000002 -0.000003 -0.000002 0.000002 -0.000002 -0.000003 0.000002 -0.000003 -0.000002 0.000002 0.000003 -0.000003 -0.000003 0.000003 -0.000003 -0.000003 0.000003 -0.000003 -0.000003 0.000004 -0.000003 -0.000003 0.000002 0.000001 -0.000000 0.000002 0.000001 -0.000000 0.000002 0.000001 -0.000000 0.000002 0.000001 -0.000000 0.000002 0.000001 -0.000000 0.000002 0.000001 -0.000000 0.000002 0.000001 -0.000000 -0.000000 0.000000 -0.000000 -0.000000 -0.000000 -0.000000 
-4.254885 88.198250 2.685077 -6.019429 -48.110777 -3.077567 -0.000000 -0.000001 -0.000000 -29.959163 3.317686 16.506149 37.435321 -9.349767 1.756875 -4.747859 1.274905 -14.361460 -0.000000 0.000000 0.000000 -0.000000 -0.000000 0.000001 -5.400566 -12.846348 -19.800761 37.724030 20.755785 -6.197496 -31.725628 -2.614202 7.681507 -0.000000 0.000002 0.000000 0.000001 -0.000000 -0.000002 6.035121 -0.415552 0.023591 12.069949 -0.647007 0.003706 12.069941 -0.647003 0.003699 0.969370 -5.514634 -0.628095 0.969361 -5.514625 -0.628095 0.000002 0.000001 -0.000000 0.969446 -5.514652 -0.628083 0.969363 -5.514606 -0.628106 0.000001 -0.000002 -0.000000 0.000002 0.000001 -0.000001 0.756128 -4.664584 -6.306318 -6.104453 12.854874 -61.074869 -2.488522 -57.874836 -5.355609 4.470204 -4.729135 21.933237 10.762690 9.805484 -3.951553 3.232081 8.534442 1.656951 0.000004 -0.000000 0.000002 1.952095 -4.165043 -33.893434 -1.868548 -2.287442 -46.810773 0.000001 0.000000 -0.000001 0.445419 7.069466 -44.252458 -2.441587 -4.166770 -52.371841 -0.000001 0.000001 0.000001 -2.065087 11.603896 -59.582916 -1.981963 -3.970590 -63.058519 0.000003 0.000001 -0.000000 -4.835924 6.085378 -62.981570 -1.248573 -6.153410 -70.072318 -0.000000 -0.000002 0.000001 -0.000001 -0.000002 0.000002 -0.000001 -0.000002 0.000002 -0.000002 -0.000001 0.000002 -0.000005 0.000002 0.000003 -0.000005 0.000002 0.000003 -0.000005 0.000002 0.000003 -0.000006 0.000002 0.000003 2.018775 7.202339 7.250133 6.408686 -23.946227 68.399857 -6.276783 62.142427 6.935103 7.705299 6.072070 -18.489240 3.013021 -9.639047 12.943720 9.983776 -18.171744 -0.015997 0.000003 0.000000 -0.000002 4.245894 -1.998539 49.180436 -2.670628 2.318264 62.191208 0.000002 -0.000002 0.000003 -1.884925 -0.716112 44.128835 -4.613450 4.299716 84.829283 0.000002 -0.000002 0.000001 -4.614528 -0.847615 52.003735 -5.073349 5.731357 91.776180 -0.000002 0.000001 -0.000003 -8.899418 0.347928 51.604620 -5.216871 9.348946 95.474495 -0.000003 -0.000000 -0.000002 0.000001 0.000002 -0.000003 0.000001 0.000002 -0.000002 0.000001 0.000002 -0.000003 -0.000001 0.000003 0.000001 -0.000001 0.000003 0.000002 -0.000001 0.000003 0.000001 -0.000001 0.000003 0.000002 -0.000000 0.000000 -0.000001 -0.000000 0.000000 -0.000001 -0.000000 0.000000 -0.000001 -0.000000 0.000000 -0.000001 -0.000000 0.000000 -0.000001 -0.000000 0.000000 -0.000001 -0.000000 0.000000 -0.000001 0.000000 -0.000003 -0.000000 -0.000000 -0.000001 -0.000000 
